<svg xmlns="http://www.w3.org/2000/svg" width="22.21" height="33.75" viewBox="0 0 22.21 33.75"><path d="M21.498 6.479c.472 1.367-.478 1.997-1.781 2.764-1.776 1.046-3.188.938-4.963-.009-1.405-.75-1.789-1.55-1.826-3.066-.045-1.662.517-2.437 1.964-3.222 1.723-.936 3.075-.993 4.737.046 1.788 1.117 1.867.992 1.869 3.487zm-1.931-.331c-.005-1.045-1.212-2.257-2.28-2.291-1.074-.033-2.354 1.252-2.35 2.36.006.951 1.268 2.146 2.294 2.178 1.013.032 2.343-1.249 2.336-2.247zm-6.208 6.613H2.301c.196-2.249 2.11-4.163 4.548-4.494v2.973h1.817V8.275c2.411.265 4.169 1.963 4.693 4.486zm-3.594 12.1c.543 2.869.062 5.318-2.038 7.408-.644-1.012-1.396-1.989-1.914-3.078-.394-.83-.419-1.726.665-2.297 1.106-.585 2.138-1.314 3.287-2.033zM5.719 14.163h4.186c0 .949.025 1.846-.018 2.738-.01.232-.172.539-.362.664-1.209.793-2.445 1.547-3.806 2.396v-5.798zm9.859-3.53h3.303c.127.489.314 1.204.568 2.169-1.125.727-2.423 1.589-3.755 2.396-.103.063-.438-.264-.668-.408.981-1.219.279-2.655.513-3.969.02-.116.046-.23.039-.188zm3.444 15.351c0 .717-.005 1.146.002 1.572.032 1.974-.851 2.657-2.728 2.033-.303-.102-.621-.5-.701-.818-.063-.244.16-.691.394-.855.901-.635 1.852-1.191 3.033-1.932zm-9.243-4.095c.322 1.014.045 1.562-.738 1.987-1.092.592-2.126 1.292-3.245 1.981-.337-.902-.161-1.465.626-1.905 1.121-.629 2.192-1.343 3.357-2.063zm-4.021 1.026c-.35-1.06.036-1.606.839-2.047 1.06-.583 2.066-1.269 3.115-1.919.329 1.287.331 1.291-.667 1.919-1.062.665-2.127 1.325-3.287 2.047zm14.04-4.681c-.37.408-.495.609-.676.729-1.078.72-2.156 1.438-3.266 2.106-.189.115-.521-.014-.79-.029.095-.229.123-.552.294-.67a64.003 64.003 0 0 1 3.357-2.182c.195-.118.542.015 1.081.046zm-.138 6.329c-.213.146-.398.283-.594.41-1.052.684-2.094 1.381-3.168 2.027-.205.123-.54.031-.814.039.111-.257.148-.617.346-.754a73.784 73.784 0 0 1 3.246-2.122c.168-.104.432-.111.638-.079.1.014.169.223.346.479zm-.511-2.574c.079.06.293.149.293.239-.001.203-.042.498-.179.59a96.445 96.445 0 0 1-3.553 2.313c-.14.086-.405-.033-.611-.059.033-.211-.014-.537.109-.62 1.196-.821 2.422-1.603 3.643-2.392.061-.037.149-.037.298-.071zm.683-5.815c-.406.471-.524.683-.705.803-1.073.718-2.15 1.438-3.258 2.105-.191.115-.529-.009-.799-.023.123-.25.178-.597.376-.736a54.32 54.32 0 0 1 3.155-2.047c.234-.141.602-.06 1.231-.102zm-.082 4.495c-.217.103-.449.183-.649.312-1.063.682-2.111 1.394-3.194 2.045-.205.125-.547.029-.824.037.109-.256.148-.613.346-.75a49.648 49.648 0 0 1 3.18-2.063c.229-.136.607-.019.918-.019.072.145.146.29.223.438zm-.161-6.145c-.161.17-.272.338-.428.44-1.078.716-2.154 1.437-3.26 2.107-.205.124-.545.031-.822.037.107-.254.142-.61.332-.744a75.36 75.36 0 0 1 3.246-2.124c.172-.107.438-.117.646-.088.103.015.179.222.286.372z" fill="#C3AE90"/></svg>