<svg xmlns="http://www.w3.org/2000/svg" width="23.5" height="28.25" viewBox="0 0 23.5 28.25"><g fill="#C3AE90"><path d="M1.879 13.979c0-3.311-.002-6.621.002-9.931.002-1.735 1.203-2.954 2.946-2.956a4169.5 4169.5 0 0 1 14.147.002c1.823.002 2.967 1.133 2.996 2.971.021 1.451.004 2.902.004 4.354 0 5.078.002 10.156 0 15.236 0 2.096-1.14 3.256-3.226 3.26-4.579.006-9.158-.021-13.738.017-1.617.012-3.197-1.216-3.153-3.158.077-3.265.022-6.532.022-9.795zm18.252-.045l-.001-9.727c0-.929-.337-1.283-1.261-1.283a7059.47 7059.47 0 0 0-13.806.004c-1.024.002-1.333.319-1.334 1.349-.002 6.462-.003 12.924 0 19.385.001 1.095.28 1.371 1.364 1.371l13.673.004c1.06 0 1.362-.305 1.362-1.376.001-3.243.001-6.485.003-9.727z"/><path d="M11.934 6.844H17.1c.135 0 .305-.049.4.014.254.166.625.35.676.586.092.424-.258.639-.678.645-.814.009-1.631.004-2.446.004l-8.019.004c-.205 0-.408-.006-.613-.004-.41.003-.74-.137-.754-.593-.014-.49.316-.656.764-.656 1.834.002 3.669.002 5.504 0zm-.023 11.642c-1.79 0-3.579-.004-5.368.005-.445.003-.865-.034-.873-.593-.008-.541.379-.646.84-.644 3.602.005 7.204.004 10.805 0 .443 0 .869.06.877.606.007.599-.444.63-.912.628-1.79-.008-3.579-.002-5.369-.002zm-.015-5.159c-1.789 0-3.578-.006-5.367.005-.447.002-.861-.038-.859-.603.004-.542.4-.635.854-.634 3.624.004 7.248.004 10.871 0 .435 0 .799.111.799.613-.002.496-.354.627-.793.625-1.834-.004-3.668-.002-5.503-.002l-.002-.004zm-.021-3.848c1.813 0 3.623.002 5.436-.002.438-.001.877.043.883.595.005.581-.442.65-.911.649-3.578-.002-7.156-.003-10.734.002-.442 0-.869-.051-.878-.601-.011-.593.441-.647.906-.646 1.765.004 3.531.002 5.298.003zm-1.636 11.638c-1.317.001-2.636-.004-3.954.004-.339.002-.627-.096-.617-.639.008-.492.285-.607.6-.607 2.67.002 5.34.002 8.009 0 .332 0 .633.107.619.646-.013.541-.328.6-.652.598-1.336-.005-2.67-.002-4.005-.002zm1.777-6.472c1.766.002 3.531.006 5.296-.002.441-.002.875.045.875.594.002.58-.442.642-.914.642-3.576-.006-7.152.006-10.729-.021-.283-.002-.681-.178-.821-.399-.256-.406.109-.806.725-.81 1.856-.013 3.712-.004 5.568-.004z"/></g></svg>