<svg xmlns="http://www.w3.org/2000/svg" width="31.75" height="25" viewBox="0 0 31.75 25"><g fill="#C3AE90"><path d="M1.202 22.141V2.71c.121-.264.206-.554.369-.789.389-.553.958-.754 1.624-.754 4.887.003 9.773.001 14.661.001 3.438 0 6.875.002 10.313-.001.546 0 1.03.14 1.434.524.299.282.43.649.56 1.02v19.43c-.12.265-.204.553-.369.789-.388.555-.956.756-1.622.756-5.288-.004-10.576-.002-15.864-.002-3.036 0-6.075-.002-9.112 0-.545.002-1.029-.139-1.433-.523-.3-.285-.431-.652-.561-1.02zm1.834-6.177c.091-.083.127-.11.155-.144.53-.619 1.059-1.241 1.591-1.859l3.271-3.796c.574-.665 1.14-1.335 1.723-1.992.604-.681 1.551-.672 2.142.009.222.258.439.515.656.776.919 1.098 1.836 2.196 2.754 3.296 1.148 1.376 2.301 2.751 3.449 4.129.35.422.345.426.736.028l.016-.017c1.08-1.078 2.154-2.162 3.24-3.233.571-.565 1.338-.597 1.932-.067 1.138 1.014 2.263 2.045 3.392 3.067.058.053.122.099.235.19v-.313c0-4.248-.001-8.495.004-12.743.002-.227-.048-.301-.289-.301-8.241.007-16.48.007-24.723 0-.241 0-.289.075-.289.301.006 4.117.005 8.234.005 12.351v.318z"/><path d="M23.064 10.353c-1.362.036-2.531-1.113-2.556-2.509-.022-1.347 1.101-2.497 2.478-2.539 1.367-.042 2.584 1.113 2.572 2.506-.009 1.405-1.046 2.48-2.494 2.542z"/></g></svg>